<?xml version="1.0" encoding="UTF-8"?>
<svg width="135px" height="51px" viewBox="0 0 135 51" version="1.1" xmlns="http://www.w3.org/2000/svg" xmlns:xlink="http://www.w3.org/1999/xlink">
    <!-- Generator: Sketch 64 (93537) - https://sketch.com -->
    <title>BCRegistryServices_cmyk_pos</title>
    <desc>Created with Sketch.</desc>
    <g id="Page-1" stroke="none" stroke-width="1" fill="none" fill-rule="evenodd">
        <g id="BenefitCorp---Inc-Application-SVG-LOGO" transform="translate(-50.000000, -720.000000)">
            <g id="Footer" transform="translate(50.000000, 662.000000)">
                <g id="BCRegistryServices_cmyk_pos-2">
                    <g id="BCRegistryServices_cmyk_pos" transform="translate(0.000000, 58.000000)">
                        <rect id="Rectangle" fill="#FFFFFF" x="0" y="0" width="135" height="51"></rect>
                        <polygon id="Fill-1" fill="#E3A82B" points="52.78 40.9336944 53.128 40.9336944 53.128 8.24841667 52.78 8.24841667"></polygon>
                        <path d="M61.3473846,22.8276944 C61.3473846,23.4436944 61.3821538,24.3163611 61.7095385,24.6928056 C62.0366154,25.0863611 62.5538462,25.1719167 63.0707692,25.1719167 C64.604,25.1719167 65.776,24.4874722 65.776,22.7763611 C65.776,21.4245833 65.0864615,19.8503611 62.3467692,19.8503611 C61.4166154,19.8503611 61.3473846,19.9530278 61.3473846,20.29525 L61.3473846,22.8276944 Z M61.3473846,18.8579167 C61.3473846,19.3370278 61.3649231,19.37125 62.2433846,19.3370278 C64.0012308,19.2685833 64.9489231,18.75525 64.9489231,17.1468056 C64.9489231,15.4699167 63.6910769,14.8368056 62.3815385,14.8368056 C62.0024615,14.8368056 61.744,14.8710278 61.5889231,14.9394722 C61.4166154,14.9908056 61.3473846,15.0763611 61.3473846,15.3843611 L61.3473846,18.8579167 Z M59.9344615,16.5821389 C59.9344615,15.3159167 59.8658462,14.9908056 59.0901538,14.9223611 L58.5390769,14.8710278 C58.4012308,14.7683611 58.4181538,14.5116944 58.5563077,14.44325 C59.4867692,14.3576944 60.6584615,14.3063611 62.2609231,14.3063611 C63.3461538,14.3063611 64.38,14.3919167 65.1556923,14.7854722 C65.8966154,15.1448056 66.4652308,15.82925 66.4652308,16.9243611 C66.4652308,18.1563611 65.7415385,18.7894722 64.7073846,19.2685833 C64.7073846,19.4396944 64.8455385,19.4910278 65.0347692,19.52525 C65.9655385,19.6963611 67.3436923,20.5519167 67.3436923,22.3828056 C67.3436923,24.3676944 65.8621538,25.7026667 62.7606154,25.7026667 C62.2609231,25.7026667 61.4166154,25.6513333 60.6929231,25.6513333 C59.9344615,25.6513333 59.3489231,25.68525 58.7113846,25.7026667 C58.608,25.6513333 58.5732308,25.37725 58.6766154,25.2745833 L58.9867692,25.22325 C59.9003077,25.06925 59.9344615,24.8810278 59.9344615,23.0843611 L59.9344615,16.5821389 L59.9344615,16.5821389 Z" id="Fill-2" fill="#E3A82B"></path>
                        <path d="M70.7384615,15.5383611 C71.996,14.5630278 73.5984615,14.0839167 75.3907692,14.0839167 C76.3209231,14.0839167 77.6304615,14.2721389 78.4406154,14.4945833 C78.6473846,14.5459167 78.7676923,14.5801389 78.9227692,14.5630278 C78.9403077,14.9565833 79.0261538,16.0345833 79.164,17.0783611 C79.0778462,17.1981389 78.8193846,17.21525 78.6990769,17.1125833 C78.4406154,15.9490278 77.6649231,14.6143611 75.1664615,14.6143611 C72.5301538,14.6143611 70.2901538,16.2741389 70.2901538,19.8161389 C70.2901538,23.4094722 72.5818462,25.3946667 75.4076923,25.3946667 C77.6304615,25.3946667 78.6126154,23.9570278 79.0089231,22.9474722 C79.1295385,22.8619167 79.388,22.8961389 79.4569231,23.0159167 C79.3363077,23.9056944 78.8886154,25.0350278 78.6298462,25.3601389 C78.4230769,25.3946667 78.2163077,25.4628056 78.0267692,25.53125 C77.648,25.6681389 76.4070769,25.9248056 75.3043077,25.9248056 C73.7535385,25.9248056 72.2716923,25.6168056 71.0138462,24.7783611 C69.6356923,23.83725 68.5673846,22.2801389 68.5673846,20.0728056 C68.5673846,18.1734722 69.4289231,16.5479167 70.7384615,15.5383611" id="Fill-3" fill="#E3A82B"></path>
                        <path d="M85.0910769,19.3883611 C85.0910769,19.6963611 85.0910769,19.8845833 85.1427692,19.9530278 C85.1944615,20.0043611 85.4529231,20.0385833 86.3316923,20.0385833 C86.952,20.0385833 87.6067692,19.9701389 88.1064615,19.5936944 C88.5716923,19.2343611 88.9683077,18.6354722 88.9683077,17.4719167 C88.9683077,16.1201389 88.1236923,14.8368056 86.2113846,14.8368056 C85.1427692,14.8368056 85.0910769,14.90525 85.0910769,15.3843611 L85.0910769,19.3883611 Z M83.6781538,16.9414722 C83.6781538,15.3159167 83.6264615,15.0250278 82.92,14.9394722 L82.3686154,14.8710278 C82.248,14.7854722 82.248,14.5116944 82.3858462,14.44325 C83.3507692,14.3576944 84.5396923,14.3063611 86.2283077,14.3063611 C87.2966154,14.3063611 88.3132308,14.3919167 89.1058462,14.8196944 C89.9329231,15.2474722 90.536,16.0174722 90.536,17.21525 C90.536,18.8408056 89.2436923,19.7305833 88.3821538,20.0728056 C88.296,20.1754722 88.3821538,20.3465833 88.4686154,20.4834722 C89.8467692,22.6908056 90.76,24.0596944 91.9316923,25.0350278 C92.2249231,25.292 92.6553846,25.4799167 93.1206154,25.5141389 C93.2067692,25.5486667 93.224,25.68525 93.1378462,25.754 C92.9827692,25.8053333 92.7070769,25.83925 92.3796923,25.83925 C90.9150769,25.83925 90.0363077,25.4114722 88.8129231,23.68325 C88.3649231,23.0501389 87.6584615,21.8694722 87.1243077,21.0994722 C86.8661538,20.7230278 86.5901538,20.5519167 85.9009231,20.5519167 C85.1255385,20.5519167 85.0910769,20.5690278 85.0910769,20.9283611 L85.0910769,23.0843611 C85.0910769,24.8810278 85.1255385,25.0863611 86.1249231,25.22325 L86.4867692,25.2745833 C86.5901538,25.3601389 86.5556923,25.6513333 86.4523077,25.7026667 C85.6769231,25.6681389 85.0910769,25.6513333 84.4018462,25.6513333 C83.6781538,25.6513333 83.0581538,25.6681389 82.248,25.7026667 C82.1446154,25.6513333 82.1101538,25.3946667 82.2135385,25.2745833 L82.6443077,25.22325 C83.6436923,25.1034722 83.6781538,24.8810278 83.6781538,23.0843611 L83.6781538,16.9414722 L83.6781538,16.9414722 Z" id="Fill-4" fill="#234075"></path>
                        <path d="M95.4310769,20.75725 C96.7061538,20.75725 97.0852308,20.6888056 97.2233846,20.5861389 C97.2750769,20.5519167 97.3267692,20.4834722 97.3267692,20.2610278 C97.3267692,19.7819167 96.9990769,19.1830278 95.9996923,19.1830278 C94.9830769,19.1830278 94.1046154,20.1070278 94.0870769,20.6716944 C94.0870769,20.7059167 94.0870769,20.75725 94.208,20.75725 L95.4310769,20.75725 Z M94.3630769,21.2705833 C93.9150769,21.2705833 93.8975385,21.3048056 93.8975385,21.7325833 C93.8975385,23.4608056 94.9144615,24.9323611 96.7578462,24.9323611 C97.3267692,24.9323611 97.8089231,24.76125 98.3430769,24.0939167 C98.5156923,24.0425833 98.636,24.14525 98.6532308,24.29925 C98.0846154,25.4628056 96.844,25.8905833 95.948,25.8905833 C94.828,25.8905833 93.9492308,25.4114722 93.4495385,24.76125 C92.9326154,24.0939167 92.7258462,23.2896944 92.7258462,22.5368056 C92.7258462,20.4321389 94.1218462,18.6696944 96.1892308,18.6696944 C97.6713846,18.6696944 98.636,19.67925 98.636,20.7059167 C98.636,20.9454722 98.6015385,21.0823611 98.5673846,21.1508056 C98.5156923,21.2534722 98.2744615,21.2705833 97.5504615,21.2705833 L94.3630769,21.2705833 L94.3630769,21.2705833 Z" id="Fill-5" fill="#234075"></path>
                        <path d="M103.620923,21.3048056 C103.620923,20.14125 103.138154,19.1659167 102.087077,19.1659167 C101.260308,19.1659167 100.639692,19.9188056 100.639692,21.0823611 C100.639692,22.29725 101.380615,23.0843611 102.208,23.0843611 C103.138154,23.0843611 103.620923,22.3485833 103.620923,21.3048056 Z M102.552308,26.1985833 C102.000923,26.1985833 101.312,26.2328056 101.070769,26.3871111 C100.657231,26.6437778 100.243385,27.1739167 100.243385,27.8241389 C100.243385,28.7481389 100.984308,29.5181389 102.552308,29.5181389 C104.085846,29.5181389 105.102462,28.6625833 105.102462,27.6875556 C105.102462,26.6437778 104.379077,26.1985833 103.138154,26.1985833 L102.552308,26.1985833 Z M106.153538,19.2856944 C106.343077,19.37125 106.308615,19.9530278 106.050154,19.98725 L104.809538,19.98725 C104.844,20.2781389 104.844,20.5690278 104.844,20.8599167 C104.844,22.0405833 104.137538,23.5805833 101.949231,23.5805833 C101.639077,23.5805833 101.397846,23.5463611 101.191077,23.52925 C100.984308,23.6490278 100.432923,23.9741389 100.432923,24.4703611 C100.432923,24.8642222 100.829231,25.1890278 101.639077,25.1890278 C102.225231,25.1890278 102.931385,25.1376944 103.689538,25.1376944 C104.654462,25.1376944 106.101846,25.3088056 106.101846,27.0199167 C106.101846,28.8853333 104.051385,30.2539167 101.811692,30.2539167 C99.692,30.2539167 98.9513846,29.1245833 98.9513846,28.2690278 C98.9513846,27.9955556 99.0203077,27.7728056 99.1406154,27.6362222 C99.4335385,27.3279167 99.9163077,26.8830278 100.312615,26.4897778 C100.467692,26.3354722 100.605538,26.1814722 100.450462,26.0788056 C99.7781538,25.908 99.1923077,25.3259167 99.1923077,24.7270278 C99.1923077,24.6414722 99.2615385,24.5730278 99.4510769,24.4361389 C99.7436923,24.2479167 100.071385,23.9570278 100.364308,23.6490278 C100.450462,23.5463611 100.536308,23.4094722 100.536308,23.3239167 C99.9507692,23.0159167 99.244,22.3485833 99.244,21.2534722 C99.244,19.7819167 100.519385,18.6696944 102.052923,18.6696944 C102.707692,18.6696944 103.310769,18.8408056 103.706769,19.0119167 C104.258462,19.2514722 104.379077,19.2856944 104.757846,19.2856944 L106.153538,19.2856944 L106.153538,19.2856944 Z" id="Fill-6" fill="#234075"></path>
                        <path d="M108.888308,15.8634722 C108.888308,16.4794722 108.457538,16.75325 107.975077,16.75325 C107.440923,16.75325 107.096308,16.3596944 107.096308,15.8976944 C107.096308,15.3330278 107.509846,14.9736944 108.026769,14.9736944 C108.543692,14.9736944 108.888308,15.3843611 108.888308,15.8634722 Z M107.458154,20.7401389 C107.458154,20.0728056 107.458154,19.98725 106.992923,19.67925 L106.837846,19.5765833 C106.768923,19.5081389 106.768923,19.3199167 106.855077,19.2685833 C107.251385,19.1316944 108.233538,18.6868056 108.629846,18.4301389 C108.716,18.4301389 108.784923,18.4643611 108.802462,18.5328056 C108.767692,19.1316944 108.733231,19.9530278 108.733231,20.6545833 L108.733231,23.7345833 C108.733231,24.9665833 108.767692,25.1376944 109.388,25.22325 L109.749846,25.2745833 C109.870462,25.3601389 109.836,25.6513333 109.715385,25.7026667 C109.198462,25.6681389 108.698769,25.6513333 108.095692,25.6513333 C107.475385,25.6513333 106.958462,25.6681389 106.476,25.7026667 C106.355385,25.6513333 106.320923,25.3601389 106.441538,25.2745833 L106.803385,25.22325 C107.440923,25.1376944 107.458154,24.9665833 107.458154,23.7345833 L107.458154,20.7401389 L107.458154,20.7401389 Z" id="Fill-7" fill="#234075"></path>
                        <path d="M114.658462,18.9776944 C114.813538,19.3541389 114.934154,19.9016944 114.934154,20.3636944 C114.865231,20.4834722 114.606769,20.5176944 114.520308,20.4150278 C114.227692,19.6621389 113.710769,19.1659167 113.004308,19.1659167 C112.332308,19.1659167 111.901538,19.5936944 111.901538,20.2096944 C111.901538,20.91125 112.625231,21.2876944 113.228308,21.6299167 C114.141538,22.14325 114.985846,22.7250278 114.985846,23.9399167 C114.985846,25.2403611 113.779692,25.8905833 112.504615,25.8905833 C111.694769,25.8905833 111.091692,25.7194722 110.660923,25.37725 C110.523077,25.0521389 110.419692,24.2136944 110.454154,23.6490278 C110.540308,23.5463611 110.764308,23.52925 110.850462,23.6319167 C111.143385,24.5730278 111.694769,25.3946667 112.676923,25.3946667 C113.297231,25.3946667 113.831385,25.0350278 113.831385,24.29925 C113.831385,23.5121389 113.142154,23.0843611 112.504615,22.7250278 C111.505231,22.1603611 110.798769,21.5614722 110.798769,20.6203611 C110.798769,19.37125 111.832615,18.6696944 113.142154,18.6696944 C113.865846,18.6696944 114.503385,18.8408056 114.658462,18.9776944" id="Fill-8" fill="#234075"></path>
                        <path d="M118.259692,19.6279167 C117.966769,19.6279167 117.949538,19.67925 117.949538,20.0385833 L117.949538,23.2383611 C117.949538,24.2308056 118.070154,25.1376944 119.207385,25.1376944 C119.379385,25.1376944 119.534462,25.1034722 119.672615,25.0521389 C119.827692,25.0008056 120.051692,24.8125833 120.103385,24.8125833 C120.240923,24.8125833 120.310154,25.0008056 120.275692,25.1034722 C119.965538,25.4628056 119.345231,25.8905833 118.466462,25.8905833 C116.984308,25.8905833 116.674154,25.06925 116.674154,24.0425833 L116.674154,20.1241389 C116.674154,19.6621389 116.657231,19.6279167 116.312615,19.6279167 L115.829846,19.6279167 C115.726462,19.5594722 115.709538,19.37125 115.778154,19.2685833 C116.277846,19.1145833 116.708923,18.8921389 116.880923,18.7381389 C117.105231,18.5328056 117.432308,18.0708056 117.604923,17.7285833 C117.691077,17.6943611 117.897846,17.6943611 117.966769,17.8141389 L117.966769,18.5841389 C117.966769,18.8921389 117.983692,18.90925 118.276923,18.90925 L120.189231,18.90925 C120.396308,19.06325 120.361846,19.52525 120.206769,19.6279167 L118.259692,19.6279167" id="Fill-9" fill="#234075"></path>
                        <path d="M121.777846,20.7401389 C121.777846,20.0728056 121.777846,19.98725 121.312615,19.67925 L121.157538,19.5765833 C121.088615,19.5081389 121.088615,19.3199167 121.174769,19.2685833 C121.571385,19.1316944 122.484308,18.6868056 122.915077,18.4301389 C123.001231,18.44725 123.052923,18.4814722 123.052923,18.5499167 L123.052923,19.5423611 C123.052923,19.6279167 123.070154,19.67925 123.104615,19.6963611 C123.707692,19.2001389 124.362462,18.6696944 125,18.6696944 C125.430769,18.6696944 125.775385,18.9434722 125.775385,19.3541389 C125.775385,19.9188056 125.310154,20.14125 125.034462,20.14125 C124.862154,20.14125 124.776308,20.0899167 124.655385,20.0214722 C124.396923,19.8503611 124.138462,19.7476944 123.897231,19.7476944 C123.621538,19.7476944 123.414769,19.9016944 123.276923,20.0899167 C123.104615,20.3294722 123.052923,20.8256944 123.052923,21.4074722 L123.052923,23.7345833 C123.052923,24.9665833 123.087385,25.1719167 123.742154,25.22325 L124.362462,25.2745833 C124.483077,25.3601389 124.448615,25.6513333 124.328,25.7026667 C123.518154,25.6681389 123.018462,25.6513333 122.415385,25.6513333 C121.795077,25.6513333 121.278154,25.6681389 120.830154,25.7026667 C120.709538,25.6513333 120.675077,25.3601389 120.795692,25.2745833 L121.123077,25.22325 C121.760615,25.1205833 121.777846,24.9665833 121.777846,23.7345833 L121.777846,20.7401389" id="Fill-10" fill="#234075"></path>
                        <path d="M126.281846,29.1759167 C126.281846,28.7139167 126.592,28.4914722 126.971077,28.4914722 L127.298769,28.4914722 C127.574154,28.4914722 127.746462,28.3716944 127.867077,28.1834722 C128.366769,27.4134722 128.711692,26.6951111 128.866462,26.2841389 C128.918154,26.14725 129.038769,25.7879167 129.038769,25.5486667 C129.038769,25.2061389 128.969846,25.0008056 128.745846,24.3676944 L127.402154,20.7059167 C127.109231,19.9016944 126.988308,19.4910278 126.385231,19.37125 L125.954769,19.2856944 C125.851385,19.2001389 125.868308,18.90925 126.006462,18.8579167 C126.557846,18.8921389 127.074462,18.90925 127.643077,18.90925 C128.108615,18.90925 128.590769,18.8921389 129.142154,18.8579167 C129.28,18.90925 129.297231,19.2001389 129.176615,19.2856944 L128.745846,19.37125 C128.504923,19.4225833 128.366769,19.4739167 128.366769,19.5936944 C128.366769,19.7990278 128.763385,20.91125 128.866462,21.2021389 L129.417846,22.7763611 C129.521231,23.0501389 129.848615,23.9570278 129.917846,23.99125 C129.969231,23.9570278 130.244923,23.4265833 130.555077,22.7250278 L131.140923,21.37325 C131.520308,20.4834722 131.744,19.8503611 131.744,19.6621389 C131.744,19.5423611 131.640615,19.4225833 131.330462,19.37125 L130.796308,19.2856944 C130.675692,19.2001389 130.692923,18.90925 130.830769,18.8579167 C131.382154,18.8921389 131.899077,18.90925 132.347077,18.90925 C132.777846,18.90925 133.174154,18.8921389 133.656615,18.8579167 C133.794462,18.9263611 133.811692,19.1830278 133.691077,19.2856944 L133.398154,19.3370278 C132.829538,19.4396944 132.519692,19.9359167 131.933538,21.1508056 L130.968923,23.1185833 C130.4,24.2650278 128.987077,27.2423611 128.142769,29.1074722 C127.850154,29.7576944 127.436308,29.9116944 127.04,29.9116944 C126.540308,29.9116944 126.281846,29.6036944 126.281846,29.1759167" id="Fill-11" fill="#234075"></path>
                        <path d="M61.64,40.8970278 C60.1926154,40.8970278 59.2793846,40.4521389 58.952,40.2642222 C58.7452308,39.8877778 58.5212308,38.6725833 58.4867692,37.8683611 C58.5729231,37.7488889 58.8313846,37.7143611 58.9003077,37.8170278 C59.1587692,38.69 59.8655385,40.3668889 61.8643077,40.3668889 C63.3113846,40.3668889 64.0181538,39.4257778 64.0181538,38.3988056 C64.0181538,37.6462222 63.8630769,36.8074722 62.6049231,36.00325 L60.9683077,34.9426667 C60.1064615,34.3776944 59.1070769,33.4023611 59.1070769,31.99925 C59.1070769,30.3736944 60.3821538,29.0561389 62.6221538,29.0561389 C63.1563077,29.0561389 63.7766154,29.1588056 64.2249231,29.2785833 C64.4486154,29.3470278 64.6898462,29.38125 64.8276923,29.38125 C64.9824615,29.7922222 65.1378462,30.7501389 65.1378462,31.4688056 C65.0692308,31.5714722 64.7932308,31.6228056 64.7070769,31.5201389 C64.4830769,30.6988056 64.0181538,29.5868889 62.3636923,29.5868889 C60.6750769,29.5868889 60.3132308,30.6988056 60.3132308,31.4859167 C60.3132308,32.4786667 61.1403077,33.1970278 61.7778462,33.5905833 L63.1563077,34.4461389 C64.2418462,35.1137778 65.3101538,36.1062222 65.3101538,37.7314722 C65.3101538,39.6136944 63.8796923,40.8970278 61.64,40.8970278" id="Fill-12" fill="#234075"></path>
                        <path d="M68.8596923,35.7294722 C70.1347692,35.7294722 70.5138462,35.6613333 70.6513846,35.5586667 C70.7033846,35.5241389 70.7550769,35.456 70.7550769,35.23325 C70.7550769,34.7541389 70.428,34.1555556 69.4286154,34.1555556 C68.4116923,34.1555556 67.5332308,35.07925 67.5156923,35.6439167 C67.5156923,35.6781389 67.5156923,35.7294722 67.6363077,35.7294722 L68.8596923,35.7294722 Z M67.7913846,36.2431111 C67.3430769,36.2431111 67.3264615,36.2770278 67.3264615,36.7051111 C67.3264615,38.4333333 68.3424615,39.9045833 70.1864615,39.9045833 C70.7550769,39.9045833 71.2375385,39.7337778 71.7716923,39.0661389 C71.944,39.0148056 72.0646154,39.1174722 72.0818462,39.2717778 C71.5132308,40.4350278 70.2726154,40.8628056 69.3769231,40.8628056 C68.2566154,40.8628056 67.3781538,40.3836944 66.8781538,39.7337778 C66.3612308,39.0661389 66.1544615,38.2619167 66.1544615,37.5090278 C66.1544615,35.4046667 67.5501538,33.6419167 69.6178462,33.6419167 C71.0996923,33.6419167 72.0646154,34.6514722 72.0646154,35.6781389 C72.0646154,35.9176944 72.0301538,36.0545833 71.9956923,36.1230278 C71.944,36.2256944 71.7024615,36.2431111 70.9790769,36.2431111 L67.7913846,36.2431111 L67.7913846,36.2431111 Z" id="Fill-13" fill="#234075"></path>
                        <path d="M73.6963077,35.7126667 C73.6963077,35.0453333 73.6963077,34.9594722 73.2310769,34.6514722 L73.076,34.5488056 C73.0073846,34.4803611 73.0073846,34.2921389 73.0932308,34.2408056 C73.4895385,34.1042222 74.4030769,33.6590278 74.8335385,33.4023611 C74.9196923,33.4197778 74.9713846,33.4536944 74.9713846,33.5224444 L74.9713846,34.5148889 C74.9713846,34.6001389 74.9886154,34.6514722 75.0230769,34.6685833 C75.6258462,34.1723611 76.2809231,33.6419167 76.9181538,33.6419167 C77.3492308,33.6419167 77.6938462,33.916 77.6938462,34.3263611 C77.6938462,34.8913333 77.2286154,35.1137778 76.9529231,35.1137778 C76.7806154,35.1137778 76.6944615,35.0624444 76.5738462,34.994 C76.3153846,34.8225833 76.0569231,34.7199167 75.8156923,34.7199167 C75.54,34.7199167 75.3332308,34.8739167 75.1953846,35.0624444 C75.0230769,35.302 74.9713846,35.7979167 74.9713846,36.3796944 L74.9713846,38.7068056 C74.9713846,39.9391111 75.0058462,40.1441389 75.6609231,40.1954722 L76.2809231,40.2468056 C76.4015385,40.3323611 76.3667692,40.6235556 76.2464615,40.6748889 C75.4366154,40.6403611 74.9369231,40.6235556 74.3338462,40.6235556 C73.7135385,40.6235556 73.1966154,40.6403611 72.7489231,40.6748889 C72.628,40.6235556 72.5935385,40.3323611 72.7138462,40.2468056 L73.0415385,40.1954722 C73.6790769,40.0928056 73.6963077,39.9391111 73.6963077,38.7068056 L73.6963077,35.7126667" id="Fill-14" fill="#234075"></path>
                        <path d="M79.1289231,35.5754722 C78.8704615,34.9426667 78.7153846,34.3948056 78.0953846,34.3095556 L77.7507692,34.2582222 C77.6473846,34.1213333 77.6643077,33.8814722 77.8024615,33.8301389 C78.2329231,33.8643611 78.836,33.8814722 79.4218462,33.8814722 C79.8870769,33.8814722 80.2316923,33.8643611 80.8175385,33.8301389 C80.9381538,33.8988889 80.9556923,34.1723611 80.8347692,34.2582222 L80.628,34.2921389 C80.0938462,34.3776944 80.0766154,34.4635556 80.2492308,34.9765833 C80.6452308,36.1575556 81.1449231,37.3550278 81.5412308,38.2448056 C81.6963077,38.5873333 81.7652308,38.7413333 81.8169231,38.7926667 C81.8858462,38.7413333 82.0067692,38.5014722 82.1443077,38.1421389 C82.3683077,37.5603611 82.9541538,36.0716944 83.1264615,35.6268056 C83.3676923,35.0279167 83.4366154,34.6685833 83.4366154,34.5662222 C83.4366154,34.4122222 83.3332308,34.3434722 83.1264615,34.3095556 L82.7301538,34.2582222 C82.6267692,34.1381389 82.644,33.8988889 82.7646154,33.8301389 C83.2987692,33.8643611 83.7295385,33.8814722 84.0569231,33.8814722 C84.4876923,33.8814722 84.7806154,33.8643611 85.2633846,33.8301389 C85.3836923,33.8988889 85.4009231,34.1555556 85.2975385,34.2582222 L85.0390769,34.2921389 C84.436,34.3776944 84.2809231,34.8225833 83.7812308,35.7808056 C83.54,36.2431111 82.4716923,38.7239167 82.196,39.4257778 C82.0236923,39.85325 81.8513846,40.2468056 81.6273846,40.8288889 C81.5929231,40.8802222 81.524,40.8970278 81.4553846,40.8970278 C81.3689231,40.8970278 81.2827692,40.8802222 81.2310769,40.8288889 C81.0932308,40.3494722 80.8347692,39.6824444 80.5763077,39.0490278 L79.1289231,35.5754722" id="Fill-15" fill="#234075"></path>
                        <path d="M87.9335385,30.836 C87.9335385,31.4516944 87.5030769,31.7257778 87.0203077,31.7257778 C86.4861538,31.7257778 86.1415385,31.3322222 86.1415385,30.8702222 C86.1415385,30.30525 86.5553846,29.9459167 87.072,29.9459167 C87.5889231,29.9459167 87.9335385,30.3565833 87.9335385,30.836 Z M86.5036923,35.7126667 C86.5036923,35.0453333 86.5036923,34.9594722 86.0381538,34.6514722 L85.8830769,34.5488056 C85.8144615,34.4803611 85.8144615,34.2921389 85.9006154,34.2408056 C86.2969231,34.1042222 87.2787692,33.6590278 87.6750769,33.4023611 C87.7615385,33.4023611 87.8301538,33.4365833 87.8473846,33.5050278 C87.8132308,34.1042222 87.7784615,34.92525 87.7784615,35.6268056 L87.7784615,38.7068056 C87.7784615,39.9391111 87.8132308,40.1099167 88.4332308,40.1954722 L88.7950769,40.2468056 C88.916,40.3323611 88.8812308,40.6235556 88.7609231,40.6748889 C88.2436923,40.6403611 87.744,40.6235556 87.1409231,40.6235556 C86.5206154,40.6235556 86.004,40.6403611 85.5212308,40.6748889 C85.4009231,40.6235556 85.3664615,40.3323611 85.4867692,40.2468056 L85.8489231,40.1954722 C86.4861538,40.1099167 86.5036923,39.9391111 86.5036923,38.7068056 L86.5036923,35.7126667 L86.5036923,35.7126667 Z" id="Fill-16" fill="#234075"></path>
                        <path d="M95.1255385,33.9328056 C95.2636923,34.0528889 95.384,34.3263611 95.384,34.6175556 C95.384,34.92525 95.212,35.2506667 95.0052308,35.2506667 C94.9187692,35.2506667 94.8326154,35.2161389 94.764,35.1305833 C94.3846154,34.6685833 93.7473846,34.2236944 93.0409231,34.2236944 C91.8347692,34.2236944 90.6627692,35.1651111 90.6627692,36.9788889 C90.6627692,38.31325 91.5935385,39.9045833 93.4369231,39.9045833 C94.4363077,39.9045833 94.9535385,39.4596944 95.3498462,38.8779167 C95.4873846,38.844 95.6424615,38.9634722 95.66,39.1174722 C95.0738462,40.3836944 93.7815385,40.8628056 92.7821538,40.8628056 C91.8689231,40.8628056 91.0246154,40.5722222 90.4215385,39.9904444 C89.8184615,39.4083611 89.4221538,38.5699167 89.4221538,37.4576944 C89.4221538,35.61 90.732,33.6419167 93.5923077,33.6419167 C93.9883077,33.6419167 94.6606154,33.7274722 95.1255385,33.9328056" id="Fill-17" fill="#234075"></path>
                        <path d="M98.7301538,35.7294722 C100.005231,35.7294722 100.384308,35.6613333 100.522154,35.5586667 C100.573846,35.5241389 100.625538,35.456 100.625538,35.23325 C100.625538,34.7541389 100.298154,34.1555556 99.2987692,34.1555556 C98.2821538,34.1555556 97.4036923,35.07925 97.3861538,35.6439167 C97.3861538,35.6781389 97.3861538,35.7294722 97.5070769,35.7294722 L98.7301538,35.7294722 Z M97.6618462,36.2431111 C97.2138462,36.2431111 97.1966154,36.2770278 97.1966154,36.7051111 C97.1966154,38.4333333 98.2132308,39.9045833 100.056923,39.9045833 C100.625538,39.9045833 101.108,39.7337778 101.642154,39.0661389 C101.814769,39.0148056 101.935077,39.1174722 101.952308,39.2717778 C101.383692,40.4350278 100.143077,40.8628056 99.2470769,40.8628056 C98.1270769,40.8628056 97.2483077,40.3836944 96.7486154,39.7337778 C96.2316923,39.0661389 96.0249231,38.2619167 96.0249231,37.5090278 C96.0249231,35.4046667 97.4206154,33.6419167 99.4883077,33.6419167 C100.970154,33.6419167 101.935077,34.6514722 101.935077,35.6781389 C101.935077,35.9176944 101.900615,36.0545833 101.866462,36.1230278 C101.814769,36.2256944 101.573231,36.2431111 100.849538,36.2431111 L97.6618462,36.2431111 L97.6618462,36.2431111 Z" id="Fill-18" fill="#234075"></path>
                        <path d="M106.714769,33.9502222 C106.869846,34.3263611 106.990769,34.8739167 106.990769,35.3359167 C106.921538,35.456 106.663077,35.4899167 106.576923,35.38725 C106.284308,34.6343611 105.767077,34.1381389 105.060615,34.1381389 C104.388923,34.1381389 103.957846,34.5662222 103.957846,35.1819167 C103.957846,35.8837778 104.681846,36.2602222 105.284923,36.6024444 C106.198154,37.1154722 107.042462,37.6975556 107.042462,38.9121389 C107.042462,40.2125833 105.836308,40.8628056 104.560923,40.8628056 C103.751077,40.8628056 103.148308,40.6916944 102.717231,40.3494722 C102.579692,40.0243611 102.476308,39.1859167 102.510462,38.62125 C102.596923,38.5185833 102.820923,38.5014722 102.906769,38.6041389 C103.2,39.54525 103.751077,40.3668889 104.733538,40.3668889 C105.353846,40.3668889 105.888,40.00725 105.888,39.2717778 C105.888,38.4846667 105.198769,38.0565833 104.560923,37.6975556 C103.561538,37.1328889 102.855077,36.5336944 102.855077,35.5925833 C102.855077,34.3434722 103.889231,33.6419167 105.198769,33.6419167 C105.922154,33.6419167 106.559692,33.8130278 106.714769,33.9502222" id="Fill-19" fill="#234075"></path>
                        <path d="M16.0209231,32.8435 C16.0209231,33.1295 16.0384615,33.5352778 16.2073846,33.7103611 C16.3763077,33.8927778 16.6430769,33.9331111 16.9098462,33.9331111 C17.7009231,33.9331111 18.3052308,33.6150278 18.3052308,32.8196667 C18.3052308,32.1914444 17.9498462,31.4596389 16.5363077,31.4596389 C16.0563077,31.4596389 16.0209231,31.5076111 16.0209231,31.6665 L16.0209231,32.8435 Z M16.0209231,30.99825 C16.0209231,31.221 16.0295385,31.2368889 16.4830769,31.221 C17.3895385,31.1889167 17.8784615,30.9505833 17.8784615,30.2031944 C17.8784615,29.4234167 17.2298462,29.1300833 16.5541538,29.1300833 C16.3584615,29.1300833 16.2252308,29.1450556 16.1449231,29.1771389 C16.0563077,29.2009722 16.0209231,29.241 16.0209231,29.384 L16.0209231,30.99825 Z M15.2916923,29.9407222 C15.2916923,29.3522222 15.2498462,29.1960833 14.8498462,29.1643056 L14.5716923,29.1450556 C14.5264615,29.1093056 14.5393846,28.9501111 14.5806154,28.94675 C15.0603077,28.9039722 15.6652308,28.8828889 16.4916923,28.8828889 C17.0516923,28.8828889 17.5852308,28.9226111 17.9855385,29.1056389 C18.3676923,29.2724722 18.6609231,29.59025 18.6609231,30.0993056 C18.6609231,30.6722222 18.2876923,30.9664722 17.7541538,31.1889167 C17.7541538,31.2686667 17.8252308,31.2928056 17.9230769,31.3083889 C18.4030769,31.3878333 19.1141538,31.7856667 19.1141538,32.6366389 C19.1141538,33.5594167 18.3498462,34.1796944 16.7495385,34.1796944 C16.4916923,34.1796944 16.0563077,34.1558611 15.6827692,34.1558611 C15.2916923,34.1558611 14.9895385,34.1720556 14.6606154,34.1796944 C14.6073846,34.1558611 14.5892308,34.0281389 14.6427692,33.9807778 L14.8030769,33.9566389 C15.2738462,33.8851389 15.2916923,33.79775 15.2916923,32.9626667 L15.2916923,29.9407222 L15.2916923,29.9407222 Z" id="Fill-20" fill="#234075"></path>
                        <path d="M25.2926154,30.7235556 C25.2926154,30.0033611 25.2775385,29.8878611 24.8295385,29.8539444 L24.6396923,29.8405 C24.5941538,29.813 24.6095385,29.6907778 24.6550769,29.67 C25.0344615,29.6840556 25.2926154,29.6907778 25.6116923,29.6907778 C25.9153846,29.6907778 26.1735385,29.6840556 26.5529231,29.67 C26.5987692,29.6907778 26.6138462,29.813 26.5683077,29.8405 L26.3787692,29.8539444 C25.9307692,29.8878611 25.9153846,30.0033611 25.9153846,30.7235556 L25.9153846,33.1420278 C25.9153846,33.8619167 25.9307692,33.9569444 26.3787692,34.0049167 L26.5683077,34.0250833 C26.6138462,34.0522778 26.5987692,34.1741944 26.5529231,34.1949722 C26.1735385,34.1809167 25.9153846,34.1741944 25.6116923,34.1741944 C25.2926154,34.1741944 25.0344615,34.1809167 24.6550769,34.1949722 C24.6095385,34.1741944 24.5941538,34.0660278 24.6396923,34.0250833 L24.8295385,34.0049167 C25.2775385,33.9569444 25.2926154,33.8619167 25.2926154,33.1420278 L25.2926154,30.7235556" id="Fill-21" fill="#234075"></path>
                        <path d="M29.5052308,33.1554722 C29.5052308,33.8689444 29.5196923,33.9703889 29.932,34.0049167 L30.16,34.0250833 C30.2024615,34.0522778 30.1883077,34.1741944 30.1458462,34.1949722 C29.74,34.1809167 29.4984615,34.1741944 29.2135385,34.1741944 C28.9292308,34.1741944 28.68,34.1809167 28.2249231,34.1949722 C28.1821538,34.1741944 28.1676923,34.059 28.2249231,34.0250833 L28.4809231,34.0049167 C28.8861538,33.9703889 28.9218462,33.8689444 28.9218462,33.1554722 L28.9218462,30.1188611 C28.9218462,29.9080278 28.9218462,29.9016111 28.7086154,29.9016111 L28.3169231,29.9016111 C28.0113846,29.9016111 27.6203077,29.9150556 27.4421538,30.0715 C27.2713846,30.2206111 27.2003077,30.3703333 27.1221538,30.5399167 C27.0652308,30.5808611 26.9655385,30.5463333 26.9372308,30.4928611 C27.0507692,30.1873056 27.1575385,29.7525 27.2073846,29.48025 C27.2289231,29.4671111 27.3212308,29.4600833 27.3427692,29.48025 C27.3855385,29.6975 27.6203077,29.6907778 27.9473846,29.6907778 L30.8283077,29.6907778 C31.2126154,29.6907778 31.2766154,29.6773333 31.3833846,29.5004167 C31.4187692,29.4869722 31.4972308,29.494 31.5113846,29.5208889 C31.4332308,29.79925 31.3833846,30.3495556 31.4049231,30.5536667 C31.3763077,30.6080556 31.2553846,30.6080556 31.22,30.5674167 C31.1984615,30.3969167 31.1486154,30.1460556 31.0421538,30.0715 C30.8784615,29.956 30.6083077,29.9016111 30.2166154,29.9016111 L29.7116923,29.9016111 C29.4984615,29.9016111 29.5052308,29.9080278 29.5052308,30.1326111 L29.5052308,33.1554722" id="Fill-22" fill="#234075"></path>
                        <path d="M32.5544615,30.7235556 C32.5544615,30.0033611 32.5393846,29.8878611 32.0913846,29.8539444 L31.9015385,29.8405 C31.856,29.813 31.8710769,29.6907778 31.9166154,29.67 C32.2963077,29.6840556 32.5544615,29.6907778 32.8735385,29.6907778 C33.1769231,29.6907778 33.4353846,29.6840556 33.8150769,29.67 C33.8606154,29.6907778 33.8756923,29.813 33.8304615,29.8405 L33.6403077,29.8539444 C33.1923077,29.8878611 33.1769231,30.0033611 33.1769231,30.7235556 L33.1769231,33.1420278 C33.1769231,33.8619167 33.1923077,33.9569444 33.6403077,34.0049167 L33.8304615,34.0250833 C33.8756923,34.0522778 33.8606154,34.1741944 33.8150769,34.1949722 C33.4353846,34.1809167 33.1769231,34.1741944 32.8735385,34.1741944 C32.5544615,34.1741944 32.2963077,34.1809167 31.9166154,34.1949722 C31.8710769,34.1741944 31.856,34.0660278 31.9015385,34.0250833 L32.0913846,34.0049167 C32.5393846,33.9569444 32.5544615,33.8619167 32.5544615,33.1420278 L32.5544615,30.7235556" id="Fill-23" fill="#234075"></path>
                        <path d="M35.9569231,34.2643333 C35.2790769,34.2643333 34.8513846,34.0877222 34.6981538,34.0134722 C34.6009231,33.86375 34.4963077,33.3815833 34.48,33.0619722 C34.5203077,33.0146111 34.6415385,33.0008611 34.6741538,33.0418056 C34.7947692,33.388 35.1258462,34.0531944 36.0621538,34.0531944 C36.7403077,34.0531944 37.0713846,33.6798056 37.0713846,33.2725 C37.0713846,32.9736667 36.9984615,32.6409167 36.4092308,32.3216111 L35.6424615,31.90025 C35.2387692,31.6765833 34.7704615,31.2888333 34.7704615,30.7318056 C34.7704615,30.0861667 35.368,29.5633611 36.4175385,29.5633611 C36.6673846,29.5633611 36.9581538,29.604 37.168,29.6519722 C37.2729231,29.6788611 37.3858462,29.6923056 37.4504615,29.6923056 C37.5233846,29.8557778 37.5956923,30.2361944 37.5956923,30.5209722 C37.5633846,30.5622222 37.4344615,30.5820833 37.3941538,30.5420556 C37.2892308,30.2154167 37.0713846,29.7738889 36.2963077,29.7738889 C35.5052308,29.7738889 35.3356923,30.2154167 35.3356923,30.528 C35.3356923,30.9221667 35.7230769,31.20725 36.0215385,31.3633889 L36.6673846,31.7031667 C37.176,31.9683889 37.6763077,32.36225 37.6763077,33.0078889 C37.6763077,33.7546667 37.0067692,34.2643333 35.9569231,34.2643333" id="Fill-24" fill="#234075"></path>
                        <path d="M40.02,31.9806111 C39.6667692,31.9806111 39.652,31.9940556 39.652,32.1978611 L39.652,33.1554722 C39.652,33.8689444 39.6889231,33.9639722 40.1012308,34.0049167 L40.3147692,34.0250833 C40.3587692,34.0522778 40.344,34.1741944 40.3,34.1949722 C39.9024615,34.1809167 39.652,34.1741944 39.3652308,34.1741944 C39.0486154,34.1741944 38.7981538,34.1879444 38.5110769,34.1949722 C38.4670769,34.1741944 38.4523077,34.0660278 38.4963077,34.0250833 L38.6218462,34.0049167 C39.0338462,33.9364722 39.0486154,33.8689444 39.0486154,33.1554722 L39.0486154,30.7098056 C39.0486154,29.9963333 38.9969231,29.8811389 38.6141538,29.8539444 L38.4227692,29.8405 C38.3787692,29.813 38.3932308,29.6907778 38.4375385,29.67 C38.7981538,29.6773333 39.0486154,29.6907778 39.3652308,29.6907778 C39.652,29.6907778 39.9024615,29.6840556 40.2187692,29.67 C40.2630769,29.6907778 40.2778462,29.813 40.2335385,29.8405 L40.0938462,29.8539444 C39.6667692,29.8945833 39.652,29.9963333 39.652,30.7098056 L39.652,31.4908056 C39.652,31.7019444 39.6667692,31.7086667 40.02,31.7086667 L42.1252308,31.7086667 C42.4787692,31.7086667 42.4935385,31.7019444 42.4935385,31.4908056 L42.4935385,30.7098056 C42.4935385,29.9963333 42.4787692,29.8945833 42.0446154,29.8539444 L41.9046154,29.8405 C41.8603077,29.813 41.8750769,29.6907778 41.9193846,29.67 C42.2578462,29.6840556 42.5083077,29.6907778 42.8101538,29.6907778 C43.0972308,29.6907778 43.3473846,29.6840556 43.6784615,29.67 C43.7227692,29.6907778 43.7372308,29.813 43.6935385,29.8405 L43.5387692,29.8539444 C43.112,29.8945833 43.0972308,29.9963333 43.0972308,30.7098056 L43.0972308,33.1554722 C43.0972308,33.8689444 43.112,33.9569444 43.5387692,34.0049167 L43.7153846,34.0250833 C43.7596923,34.0522778 43.7449231,34.1741944 43.7006154,34.1949722 C43.3473846,34.1809167 43.0972308,34.1741944 42.8101538,34.1741944 C42.5083077,34.1741944 42.2433846,34.1809167 41.9193846,34.1949722 C41.8750769,34.1741944 41.8603077,34.0660278 41.9046154,34.0250833 L42.0446154,34.0049167 C42.4935385,33.9364722 42.4935385,33.8689444 42.4935385,33.1554722 L42.4935385,32.1978611 C42.4935385,31.9940556 42.4787692,31.9806111 42.1252308,31.9806111 L40.02,31.9806111" id="Fill-25" fill="#234075"></path>
                        <path d="M11.0787692,35.6873056 C11.6836923,35.2201111 12.4544615,34.9903333 13.3166154,34.9903333 C13.7643077,34.9903333 14.3941538,35.0804722 14.7836923,35.1874167 C14.8833846,35.2115556 14.9412308,35.2283611 15.0156923,35.2201111 C15.024,35.4086389 15.0655385,35.9256389 15.1316923,36.4258333 C15.0904615,36.4826667 14.9661538,36.4912222 14.908,36.4420278 C14.7836923,35.8843889 14.4107692,35.2445556 13.2089231,35.2445556 C11.9409231,35.2445556 10.8633846,36.0399167 10.8633846,37.7375833 C10.8633846,39.46 11.9655385,40.4111944 13.3249231,40.4111944 C14.3941538,40.4111944 14.8667692,39.7224722 15.0572308,39.2384722 C15.1150769,39.1978333 15.2396923,39.2140278 15.2726154,39.2717778 C15.2147692,39.6977222 14.9993846,40.2394722 14.8747692,40.3956111 C14.7753846,40.4111944 14.676,40.4445 14.5849231,40.4768889 C14.4024615,40.5428889 13.8055385,40.6660278 13.2753846,40.6660278 C12.5292308,40.6660278 11.8163077,40.5181389 11.2113846,40.1163333 C10.5483077,39.6653333 10.0344615,38.9194722 10.0344615,37.8613333 C10.0344615,36.9504722 10.4489231,36.1713056 11.0787692,35.6873056" id="Fill-26" fill="#234075"></path>
                        <path d="M19.9427692,38.4831389 C19.9427692,37.3623611 19.4187692,36.1529722 18.0467692,36.1529722 C17.2996923,36.1529722 16.3301538,36.6354444 16.3301538,38.1228889 C16.3301538,39.1281667 16.8473846,40.4328889 18.2621538,40.4328889 C19.124,40.4328889 19.9427692,39.8214722 19.9427692,38.4831389 Z M15.6116923,38.3401389 C15.6116923,36.9819444 16.6889231,35.9424444 18.1686154,35.9424444 C19.828,35.9424444 20.6609231,37.0766667 20.6609231,38.2723056 C20.6609231,39.6445556 19.5550769,40.6434167 18.1686154,40.6434167 C16.5744615,40.6434167 15.6116923,39.5629722 15.6116923,38.3401389 L15.6116923,38.3401389 Z" id="Fill-27" fill="#234075"></path>
                        <path d="M28.7646154,37.7562222 C28.7646154,37.3354722 28.7501538,36.5541667 28.6267692,36.34975 C28.576,36.2684722 28.4458462,36.2211111 28.2643077,36.2076667 L28.0833846,36.1942222 C28.0396923,36.14625 28.0538462,36.0579444 28.0975385,36.03075 C28.3729231,36.0441944 28.6415385,36.0509167 28.9243077,36.0509167 C29.2289231,36.0509167 29.4243077,36.0441944 29.6858462,36.0310556 C29.7433846,36.0649722 29.7363077,36.1529722 29.7,36.1942222 L29.5261538,36.2076667 C29.3449231,36.2211111 29.2070769,36.2822222 29.1633846,36.3705278 C29.0621538,36.5941944 29.0621538,37.3761111 29.0621538,37.7562222 L29.0621538,38.5240833 C29.0621538,39.1150278 28.9606154,39.7392778 28.5544615,40.1478056 C28.2424615,40.4661944 27.7061538,40.6434167 27.1692308,40.6434167 C26.6689231,40.6434167 26.1689231,40.5548056 25.8135385,40.2700278 C25.4292308,39.9711944 25.248,39.4749722 25.248,38.6661667 L25.248,37.0632222 C25.248,36.3564722 25.2335385,36.2412778 24.8126154,36.2076667 L24.6313846,36.1942222 C24.588,36.1667222 24.6024615,36.0515278 24.6461538,36.03075 C25.0086154,36.0441944 25.2550769,36.0509167 25.5452308,36.0509167 C25.8424615,36.0509167 26.0818462,36.0441944 26.4372308,36.0310556 C26.4806154,36.0515278 26.4953846,36.1667222 26.4516923,36.1942222 L26.2775385,36.2076667 C25.8572308,36.2412778 25.8424615,36.3564722 25.8424615,37.0632222 L25.8424615,38.5305 C25.8424615,39.6240833 26.2052308,40.3445833 27.3147692,40.3445833 C28.3658462,40.3445833 28.7646154,39.5703056 28.7646154,38.5375278 L28.7646154,37.7562222" id="Fill-28" fill="#234075"></path>
                        <path d="M37.8498462,39.4120278 C37.8498462,39.6589167 37.8661538,40.0087778 38.0181538,40.1597222 C38.1704615,40.3183056 38.4110769,40.3522222 38.6513846,40.3522222 C39.3646154,40.3522222 39.9098462,40.0775278 39.9098462,39.3915556 C39.9098462,38.8491944 39.5889231,38.2185278 38.3147692,38.2185278 C37.8818462,38.2185278 37.8498462,38.2591667 37.8498462,38.3966667 L37.8498462,39.4120278 Z M37.8498462,37.8200833 C37.8498462,38.0122778 37.8581538,38.0260278 38.2667692,38.0122778 C39.0843077,37.9853889 39.5252308,37.7794444 39.5252308,37.1341111 C39.5252308,36.4618889 38.9396923,36.2082778 38.3307692,36.2082778 C38.1547692,36.2082778 38.0341538,36.2217222 37.9621538,36.2486111 C37.8818462,36.2693889 37.8498462,36.3039167 37.8498462,36.4270556 L37.8498462,37.8200833 Z M37.1929231,36.908 C37.1929231,36.4001667 37.1609231,36.2693889 36.8003077,36.2421944 L36.5436923,36.21775 C36.5141538,36.1914722 36.4987692,36.0536667 36.5513846,36.05 C36.9843077,36.0182222 37.5292308,35.9953056 38.2747692,35.9953056 C38.7796923,35.9953056 39.2603077,36.0295278 39.6212308,36.1868889 C39.9658462,36.3311111 40.2301538,36.6055 40.2301538,37.0445833 C40.2301538,37.5389722 39.8935385,37.7928889 39.4129231,37.9853889 C39.4129231,38.0535278 39.4766154,38.074 39.5652308,38.08775 C39.9978462,38.1565 40.6393846,38.4996389 40.6393846,39.2335833 C40.6393846,40.02925 39.9498462,40.5645833 38.5070769,40.5645833 C38.2747692,40.5645833 37.8818462,40.5435 37.5455385,40.5435 C37.1929231,40.5435 36.9203077,40.5575556 36.6233846,40.5645833 C36.5753846,40.5435 36.5593846,40.4341111 36.6073846,40.3931667 L36.752,40.3726944 C37.1766154,40.3106667 37.1929231,40.2355 37.1929231,39.515 L37.1929231,36.908 L37.1929231,36.908 Z" id="Fill-29" fill="#234075"></path>
                        <path d="M21.3649231,31.7926944 C21.2267692,31.7926944 20.9510769,31.8440278 20.9510769,31.6619167 L20.9510769,30.3584167 C20.9510769,29.8493611 20.9673846,29.7763333 21.5836923,29.7763333 C22.3049231,29.7763333 22.7510769,30.14025 22.7510769,30.8103333 C22.7510769,31.1012222 22.6455385,31.3710278 22.3778462,31.5525278 C22.0701538,31.7636667 21.7375385,31.7926944 21.3649231,31.7926944 Z M24.1323077,34.0250833 L23.9421538,34.0085833 C23.904,34.0049167 23.8698462,33.9997222 23.8372308,33.9945278 C23.5593846,33.9453333 23.4483077,33.7002778 23.3175385,33.4720278 L22.6609231,32.3368889 C22.5473846,32.1474444 22.4258462,31.8923056 22.1661538,31.85625 C22.8393846,31.7761944 23.4473846,31.3905833 23.4473846,30.7278333 C23.4473846,29.9633333 22.6852308,29.6217222 21.9150769,29.6217222 C21.4529231,29.6217222 21.032,29.63425 20.5615385,29.63425 C20.3021538,29.63425 19.9938462,29.6217222 19.7344615,29.6217222 C19.5904615,29.6217222 19.5883077,29.65075 19.5883077,29.7311111 C19.5883077,29.84875 19.6387692,29.8160556 19.7913846,29.8243056 C20.3387692,29.8551667 20.3178462,29.9563056 20.3178462,30.4219722 L20.3178462,33.3996111 C20.3178462,33.8255556 20.3547692,33.9529722 19.9049231,33.9933056 C19.9049231,33.9933056 19.8356923,33.9997222 19.7963077,34.0043056 L19.6055385,34.0235556 C19.56,34.0641944 19.5753846,34.1726667 19.6209231,34.19375 C19.7221538,34.1891667 19.9021538,34.18275 19.9021538,34.18275 C20.1516923,34.1754167 20.4009231,34.1564722 20.6504615,34.1564722 C20.9009231,34.1564722 21.1412308,34.1754167 21.3876923,34.18275 L21.3876923,34.1830556 C21.4750769,34.1855 21.5676923,34.18825 21.6689231,34.1922222 C21.7147692,34.1720556 21.7295385,34.0629722 21.6843077,34.0223333 L21.492,34.0049167 C21.4529231,34.0003333 21.3858462,33.9939167 21.3858462,33.9939167 C20.9304615,33.9636667 20.9584615,33.83625 20.9584615,33.3996111 L20.9584615,32.2785278 C20.9584615,32.2128333 20.9504615,32.0380556 20.9987692,31.9873333 C21.0396923,31.9436389 21.1126154,31.9509722 21.1772308,31.9509722 C21.7935385,31.9509722 21.7852308,32.0090278 22.0772308,32.5183889 L22.8716923,33.9376944 C22.9366154,34.0473889 22.9852308,34.1855 23.1473846,34.1855 L23.8375385,34.1855 C23.9243077,34.18825 24.016,34.1916111 24.1169231,34.1949722 C24.1624615,34.1745 24.1778462,34.0660278 24.1323077,34.0250833 L24.1323077,34.0250833 Z" id="Fill-30" fill="#234075"></path>
                        <path d="M21.5135385,37.08675 C21.5135385,36.3732778 21.4984615,36.2648056 21.0243077,36.2305833 L20.836,36.2168333 C20.7910769,36.1896389 20.8061538,36.0680278 20.8513846,36.0469444 C21.2726154,36.0603889 21.5286154,36.0674167 21.8295385,36.0674167 C22.1230769,36.0674167 22.3790769,36.0603889 22.7550769,36.04725 C22.8,36.0680278 22.8153846,36.1896389 22.7701538,36.2168333 L22.5895385,36.2305833 C22.1458462,36.2648056 22.1304615,36.3732778 22.1304615,37.08675 L22.1304615,39.4505278 C22.1304615,39.8783056 22.1529231,40.0546111 22.2886154,40.1838611 C22.3710769,40.2584167 22.5144615,40.3406111 23.1089231,40.3406111 C23.7483077,40.3406111 23.9061538,40.3134167 24.0267692,40.252 C24.1775385,40.1704167 24.3729231,39.9265833 24.5233846,39.5794722 C24.5686154,39.5455556 24.7116923,39.5724444 24.7116923,39.6204167 C24.7116923,39.6952778 24.5009231,40.3882778 24.3953846,40.5713056 C24.0116923,40.5575556 23.2969231,40.5505278 22.5215385,40.5505278 L21.8295385,40.5505278 C21.5135385,40.5505278 21.2726154,40.5575556 20.8513846,40.5713056 C20.8061538,40.5505278 20.7910769,40.4423611 20.836,40.4017222 L21.0618462,40.38125 C21.4984615,40.3406111 21.5135385,40.2452778 21.5135385,39.5321111 L21.5135385,37.08675" id="Fill-31" fill="#234075"></path>
                        <path d="M41.6716923,37.0995833 C41.6716923,36.3796944 41.6569231,36.2648056 41.2206154,36.2305833 L41.036,36.2168333 C40.992,36.1896389 41.0064615,36.0680278 41.0510769,36.0469444 C41.4203077,36.0603889 41.6716923,36.0674167 41.9818462,36.0674167 C42.2772308,36.0674167 42.5286154,36.0603889 42.8981538,36.04725 C42.9421538,36.0680278 42.9569231,36.1896389 42.9126154,36.2168333 L42.728,36.2305833 C42.2923077,36.2648056 42.2772308,36.3796944 42.2772308,37.0995833 L42.2772308,39.5186667 C42.2772308,40.2379444 42.2923077,40.3338889 42.728,40.38125 L42.9126154,40.4017222 C42.9569231,40.4289167 42.9421538,40.5505278 42.8981538,40.5713056 C42.5286154,40.5575556 42.2772308,40.5505278 41.9818462,40.5505278 C41.6716923,40.5505278 41.4203077,40.5575556 41.0510769,40.5713056 C41.0064615,40.5505278 40.992,40.4423611 41.036,40.4017222 L41.2206154,40.38125 C41.6569231,40.3338889 41.6716923,40.2379444 41.6716923,39.5186667 L41.6716923,37.0995833" id="Fill-32" fill="#234075"></path>
                        <path d="M35.768,40.3794167 C35.7298462,40.37575 35.6593846,40.3699444 35.6593846,40.3699444 C35.5812308,40.3623056 35.5113846,40.3513056 35.4563077,40.2908056 C35.3603077,40.1899722 35.3686154,39.9018333 35.3686154,39.7866389 L35.3686154,36.8096111 C35.3686154,36.6800556 35.3363077,36.39925 35.4323077,36.2981111 C35.4803077,36.2446389 35.58,36.2360833 35.6686154,36.2308889 L35.6686154,36.2305833 C35.7227692,36.2263056 35.724,36.2263056 35.7713846,36.2235556 L35.9612308,36.2107222 C36.0070769,36.1835278 35.9916923,36.0606944 35.9458462,36.0405278 C35.8449231,36.0441944 35.7523077,36.0426667 35.6646154,36.0454167 L35.6646154,36.0460278 L34.8572308,36.0460278 C34.7698462,36.0460278 34.6898462,36.0460278 34.6418462,36.1395278 L32.9972308,39.5415833 L31.5443077,36.2553333 C31.4963077,36.1395278 31.4883077,36.0460278 31.3366154,36.0460278 L30.4963077,36.0460278 C30.4089231,36.0429722 30.3123077,36.0441944 30.2110769,36.0405278 C30.1652308,36.0606944 30.1501538,36.1835278 30.196,36.2107222 L30.3855385,36.2235556 C30.4249231,36.2275278 30.4956923,36.2315 30.4956923,36.2315 C30.8107692,36.2519722 30.8301538,36.3216389 30.8018462,36.6510278 L30.5544615,39.8443889 C30.5326154,40.1646111 30.5147692,40.3341944 30.1769231,40.3650556 C30.1769231,40.3650556 30.1052308,40.3742222 30.0658462,40.3785 L29.876,40.3986667 C29.8307692,40.4393056 29.8458462,40.5483889 29.8913846,40.56825 C29.9916923,40.5648889 30.1692308,40.5596944 30.1692308,40.5596944 C30.3409231,40.5511389 30.5153846,40.5361667 30.6901538,40.5361667 C30.8784615,40.5361667 31.0670769,40.5532778 31.2556923,40.5615278 C31.3430769,40.5642778 31.4356923,40.5670278 31.5369231,40.5713056 C31.5824615,40.5502222 31.5975385,40.44175 31.5523077,40.4011111 L31.3621538,40.3809444 C31.3123077,40.3766667 31.2566154,40.3717778 31.2566154,40.3717778 C30.7683077,40.3378611 30.7793846,39.99625 30.8095385,39.5779444 L31.0412308,36.6079444 L31.0972308,36.6079444 L32.6698462,40.2623889 C32.6855385,40.3125 32.7095385,40.3989722 32.7895385,40.3989722 C32.8615385,40.3989722 32.8855385,40.3198333 32.9092308,40.2694167 L34.6815385,36.5214722 L34.7378462,36.5214722 L34.7378462,39.7866389 C34.7378462,39.9165 34.7535385,40.18325 34.6178462,40.2837778 C34.5467692,40.3360278 34.3163077,40.3678056 34.3163077,40.3678056 C34.2846154,40.3726944 34.2510769,40.3766667 34.2135385,40.38125 L34.0236923,40.4017222 C33.9781538,40.4423611 33.9932308,40.5505278 34.0387692,40.5713056 C34.1387692,40.5676389 34.3163077,40.5621389 34.3163077,40.5621389 C34.5735385,40.5548056 34.8350769,40.5361667 35.0969231,40.5361667 C35.2846154,40.5361667 35.6535385,40.5538889 35.6535385,40.5538889 C35.7412308,40.5563333 35.8409231,40.5658056 35.9424615,40.5694722 C35.9883077,40.5496111 36.0033846,40.4408333 35.9578462,40.3998889 L35.768,40.3794167" id="Fill-33" fill="#234075"></path>
                        <path d="M46.1110769,38.7168889 L45.2227692,38.7168889 C45.1916923,38.7168889 44.9449231,38.7456111 44.9449231,38.6731944 C44.9449231,38.6518056 44.96,38.6087222 44.9676923,38.5873333 L45.5009231,37.2758889 C45.5163077,37.2401389 45.5704615,37.0601667 45.6323077,37.0601667 C45.6784615,37.0601667 45.7406154,37.2474722 45.756,37.2758889 L46.2809231,38.5008611 C46.2809231,38.5149167 46.3350769,38.6301111 46.3350769,38.6588333 C46.3350769,38.7385833 46.1575385,38.7168889 46.1110769,38.7168889 Z M48.1052308,40.3980556 L48.08,40.3775833 C48.0418462,40.3733056 48.0083077,40.3696389 47.9763077,40.3638333 C47.6806154,40.29875 47.5652308,39.9443056 47.4563077,39.6928333 L45.9338462,36.1141667 C45.9187692,36.0713889 45.8886154,35.9794167 45.828,35.9794167 C45.7449231,35.9794167 45.7224615,36.0787222 45.7,36.1355556 L44.2455385,39.7068889 C44.1929231,39.8419444 44.0572308,40.1701111 43.9590769,40.2700278 C43.8843077,40.3461111 43.7861538,40.3604722 43.6821538,40.3717778 C43.6821538,40.3717778 43.6,40.3794167 43.5606154,40.3833889 L43.3818462,40.4017222 C43.3363077,40.4423611 43.3516923,40.5505278 43.3972308,40.5713056 C43.4987692,40.5676389 43.6784615,40.5615278 43.6784615,40.5615278 C43.8775385,40.5590833 44.0766154,40.5337222 44.2756923,40.5337222 C44.4430769,40.5337222 44.6104615,40.5511389 44.7781538,40.5590833 C44.7781538,40.5590833 44.9578462,40.5648889 45.0593846,40.5688611 C45.1049231,40.5483889 45.1203077,40.4399167 45.0747692,40.3986667 L44.8849231,40.3785 C44.8470769,40.3748333 44.7815385,40.3687222 44.7815385,40.3687222 C44.6067692,40.3491667 44.3889231,40.3183056 44.3889231,40.1273333 C44.3889231,39.999 44.4489231,39.8492778 44.4941538,39.7353056 L44.7203077,39.2008889 C44.8335385,38.9442222 44.788,38.9155 45.0895385,38.9155 L46.1144615,38.9155 C46.4763077,38.9155 46.4236923,38.9155 46.5818462,39.2791111 L46.8230769,39.8205556 C46.8606154,39.91375 46.9283077,40.0701944 46.9283077,40.1701111 C46.9283077,40.3491667 46.7313846,40.3610833 46.5473846,40.3763611 C46.5473846,40.3763611 46.4864615,40.3818611 46.4335385,40.3855278 L46.2510769,40.3986667 C46.2052308,40.4393056 46.2206154,40.5483889 46.2661538,40.5685556 C46.3673846,40.5648889 46.5473846,40.5575556 46.5473846,40.5575556 C46.7621538,40.5502222 46.9775385,40.5337222 47.1846154,40.5337222 C47.4486154,40.5337222 47.7126154,40.5511389 47.9766154,40.5590833 C48.0633846,40.5615278 47.9898462,40.5642778 48.0901538,40.5676389 C48.1356923,40.5477778 48.1510769,40.4386944 48.1052308,40.3980556 L48.1052308,40.3980556 Z" id="Fill-34" fill="#234075"></path>
                        <path d="M18.436,24.9131111 C23.2449231,24.9131111 29.8969231,27.602 34.7233846,27.602 C38.1676923,27.602 41.5283077,26.6886944 43.4415385,25.3445556 C43.5750769,24.5556111 43.6458462,23.7446667 43.6458462,22.9181389 C43.6458462,14.8924167 37.0941538,8.38591667 29.012,8.38591667 C20.9301538,8.38591667 14.3781538,14.8924167 14.3781538,22.9181389 C14.3781538,23.7355 14.4473846,24.5366667 14.5781538,25.3170556 C15.1055385,25.2205 16.8990769,24.9131111 18.436,24.9131111" id="Fill-35" fill="#FFFFFE"></path>
                        <polyline id="Fill-36" fill="#F1AF2A" points="38.4658462 19.5579444 39.0446154 19.7965833 40.3276923 18.9074167 38.4658462 19.5579444"></polyline>
                        <path d="M16.9049231,18.5658056 L15.384,18.0344444 L15.4603077,17.8489722 L17.1732308,18.4160833 L17.1806154,18.4124167 L17.4064615,18.2846944 L17.4966154,18.2284722 L15.6289231,17.4395278 L15.7076923,17.2458056 L19.8769231,18.92025 L20.0144615,18.8637222 L15.8796923,16.8626389 L15.972,16.6747222 L20.3532308,18.6999444 L20.4138462,18.6690833 L16.1658462,16.2759722 L16.2529231,16.0963056 L22.3876923,19.4115833 C22.4378462,19.3193056 22.5430769,19.15125 22.5969231,19.0605 C20.2646154,16.8828056 18.0138462,15.2477778 18.0138462,15.2477778 C18.0138462,15.2477778 20.3286154,16.7874722 23.1855385,18.2186944 C23.2793846,18.1016667 23.3569231,18.0078611 23.4575385,17.8966389 L18.2243077,13.32125 L18.3646154,13.1779444 L22.5889231,16.75325 L18.6753846,12.8610833 L18.8218462,12.71075 L23.2156923,16.9271111 L19.1255385,12.41925 L19.2821538,12.2796111 L23.0621538,16.2991944 L19.612,11.9816944 L19.7606154,11.8478611 L24.1830769,17.1923333 C24.2975385,17.0945556 24.3923077,17.0209167 24.512,16.9295556 C23.1741538,14.0548889 21.7132308,11.7161667 21.7132308,11.7161667 C21.7132308,11.7161667 23.268,13.9895 25.3661538,16.3697778 C25.4944615,16.2979722 25.6243077,16.2295278 25.7569231,16.1650556 L25.7347692,16.1503889 L22.6356923,10.0078056 L22.8196923,9.92713889 L25.3876923,14.8135833 L23.2270769,9.74930556 L23.42,9.66405556 L25.9030769,15.2080556 L23.8110769,9.50730556 L24.0089231,9.4355 L25.9978462,14.5685278 L24.4270769,9.28272222 L24.6156923,9.21305556 L26.6833846,15.7699722 L26.6793846,15.7870833 L26.6846154,15.78525 C26.8221538,15.7394167 26.9615385,15.6993889 27.1024615,15.6605833 C26.9449231,12.5121389 26.4756923,9.81775 26.4756923,9.81775 C26.4756923,9.81775 27.0566154,12.4883056 28.0981538,15.4653333 C28.2433846,15.4479167 28.3892308,15.4326389 28.5366154,15.4228611 L28.532,15.4161389 L28.5501538,15.4161389 L28.5393846,15.4005556 L27.9830769,8.55275 L28.184,8.54663889 L28.7218462,14.0322778 L28.6292308,8.53319444 L28.84,8.52586111 L29.0507692,14.5899167 L29.2615385,8.52586111 L29.4726154,8.53319444 L29.38,14.0322778 L29.9175385,8.54663889 L30.1187692,8.55275 L29.5621538,15.4005556 L29.552,15.4161389 L29.5547692,15.4161389 L29.5532308,15.4179722 L29.5621538,15.4179722 C29.7061538,15.4268333 29.8489231,15.4418056 29.9907692,15.4583056 C31.0307692,12.4837222 31.6104615,9.81775 31.6104615,9.81775 C31.6104615,9.81775 31.1430769,12.5038889 30.9849231,15.6474444 C31.1267692,15.6844167 31.2673846,15.7250556 31.4058462,15.7702778 L33.4661538,9.23688889 L33.6550769,9.30594444 L32.084,14.5920556 L34.0729231,9.45872222 L34.2704615,9.53052778 L32.1784615,15.2315833 L34.6618462,9.68758333 L34.8547692,9.77252778 L32.6941538,14.8368056 L35.2621538,9.95097222 L35.4464615,10.0313333 L32.3578462,16.1519167 L32.3633846,16.1540556 C32.4904615,16.2154722 32.6150769,16.2811667 32.7381538,16.349 C34.8273846,13.9760556 36.3732308,11.7161667 36.3732308,11.7161667 C36.3732308,11.7161667 34.9224615,14.0386944 33.5886154,16.8996111 C33.7076923,16.9891389 33.8243077,17.0814167 33.9372308,17.1773611 L38.308,11.8909444 L38.4569231,12.0247778 L35.0064615,16.3422778 L38.7870769,12.3223889 L38.9430769,12.4626389 L34.8529231,16.9701944 L39.2467692,12.7538333 L39.3932308,12.9044722 L35.48,16.7963333 L39.704,13.2213333 L39.8443077,13.3643333 L34.6747692,17.8880833 L34.6778462,17.8911389 C34.768,17.99075 34.8550769,18.0940278 34.9403077,18.1988333 C37.7787692,16.7737222 40.0726154,15.2477778 40.0726154,15.2477778 C40.0726154,15.2477778 37.8436923,16.8672222 35.5233846,19.0293333 C35.5870769,19.1344444 35.6898462,19.3144167 35.7483077,19.4231944 L41.796,16.1528333 L41.8836923,16.3331111 L37.056,19.0519444 L42.0775385,16.7315556 L42.1692308,16.9194722 L37.4923077,19.1824167 L37.5821538,19.2138889 L42.3409231,17.3023333 L42.4203077,17.4963611 L37.9966154,19.3648333 L38.0793846,19.39875 L41.0267692,18.4231111 L41.4710769,18.1148056 L41.6187692,18.22725 L42.5889231,17.9058056 L42.6652308,18.0906667 L41.8258462,18.384 L43.0384615,19.3025 L43.4267692,19.5176111 C41.868,13.04625 36.0064615,8.23558333 29.012,8.23558333 C21.8947692,8.23558333 15.9504615,13.2170556 14.5190769,19.8604444 C14.5375385,19.8515833 14.5550769,19.8430278 14.5735385,19.8341667 L14.7513846,19.7544167 L14.8603077,19.7033889 L16.9049231,18.5658056" id="Fill-37" fill="#E3A82B"></path>
                        <path d="M14.4353846,25.6314722 C14.4353846,25.6314722 16.6215385,25.1978889 18.4467692,25.1978889 C23.2556923,25.1978889 29.9073846,27.8864722 34.7341538,27.8864722 C38.2747692,27.8864722 41.7276923,26.9221389 43.6101538,25.5153611 C43.7569231,24.6836389 43.8341538,23.8280833 43.8341538,22.9545 C43.8341538,21.7710833 43.6926154,20.6203611 43.4267692,19.5176111 L41.4147692,18.4035556 L39.0535385,20.04775 L37.4655385,19.4332778 C36.928,19.7030833 33.6107692,21.9058333 33.6107692,21.9058333 L32.3375385,20.991 L30.972,20.7224167 L29.1501538,19.4057778 L27.0609231,20.8299722 C27.0609231,20.8299722 24.7301538,22.1738056 24.6498462,22.1738056 C24.5698462,22.1738056 21.8375385,20.023 21.8375385,20.023 L20.5790769,18.7063611 C20.3646154,18.8408056 19.5086154,19.2306944 19.5086154,19.2306944 L19.4643077,19.2426111 L18.636,18.9877778 L17.6298462,18.45825 L14.5735385,19.8341667 C14.5550769,19.8430278 14.5375385,19.8515833 14.5190769,19.8604444 C14.304,20.8583889 14.1898462,21.893 14.1898462,22.9545 C14.1898462,23.8684167 14.2744615,24.7630833 14.4353846,25.6314722" id="Fill-38" fill="#234075"></path>
                    </g>
                </g>
            </g>
        </g>
    </g>
</svg>